<?xml version="1.0" encoding="utf-8"?>
<!-- Generator: Adobe Illustrator 17.1.0, SVG Export Plug-In . SVG Version: 6.00 Build 0)  -->
<!DOCTYPE svg PUBLIC "-//W3C//DTD SVG 1.1//EN" "http://www.w3.org/Graphics/SVG/1.1/DTD/svg11.dtd">
<svg version="1.1" id="Layer_1" xmlns="http://www.w3.org/2000/svg" xmlns:xlink="http://www.w3.org/1999/xlink" x="0px" y="0px"
	 viewBox="0 0 544.4 133.5" enable-background="new 0 0 544.4 133.5" xml:space="preserve">
<g>
	<g>
		<g>
			<path fill="#80BA27" d="M524.9,19.5C512.8,7.5,496.2,0,477.8,0c-18.4,0-35.1,7.5-47.1,19.5c-12.1,12-19.5,28.7-19.5,47.1
				c0,18.4,7.5,35.1,19.5,47.1c12,12.1,28.7,19.5,47.1,19.5c18.4,0,35.1-7.5,47.1-19.5c12.1-12,19.5-28.7,19.5-47.1
				S537,31.6,524.9,19.5z M477.8,92.9c-7.3,0-13.8-2.9-18.6-7.7c-4.8-4.8-7.7-11.3-7.7-18.6c0-7.3,2.9-13.8,7.7-18.6
				c4.8-4.8,11.3-7.7,18.6-7.7c7.3,0,13.8,2.9,18.6,7.7c4.8,4.8,7.7,11.3,7.7,18.6c0,7.3-2.9,13.8-7.7,18.6
				C491.6,89.9,485,92.9,477.8,92.9z M435.4,24.2c10-10,23.6-16.5,38.6-17.4c1.1,0.1,3.7,0.6,3.7,3.8c0,0,0,0,0,0V30c0,0,0,0,0,0
				c0,2.6-1.7,3.5-2.9,3.7c-0.4,0-0.6,0.1-0.9,0.1c-0.1,0-0.4,0.1-0.4,0.1l-0.5,0c-7.4,1-13.5,4.3-18.5,9.3
				c-5.4,5.3-8.9,12.6-9.5,20.6c-0.3,1.2-1.2,2.6-3.7,2.6c-0.3,0-0.6,0-0.8,0.1h-17.8c-0.2-0.1-0.5-0.1-0.8-0.1
				c-4.2,0-3.9-4.3-3.9-4.3l0,0.3C419.1,47.8,425.5,34.1,435.4,24.2z M520.2,109c-9.9,9.9-23.3,16.4-38.2,17.4l-0.4,0
				c0,0-3.8,0.3-3.8-3.9c0-0.1,0-0.1,0-0.2v-19c0-0.1,0-0.1,0-0.2c0-2.3,1.3-3.2,2.4-3.6c8.1-0.6,15.5-4.1,20.9-9.6
				c5.4-5.4,8.9-12.6,9.5-20.6c0.3-1.2,1.2-2.6,3.6-2.7h19.6c3.8,0.1,3.8,3.7,3.7,4.2C536.5,85.7,530.1,99.1,520.2,109z"/>
		</g>
		<g>
			<path fill="#80BA27" d="M482.7,71.1l7.7-7.7c1.3-1.3,1.2-3.4-0.1-4.8c-1.4-1.4-3.5-1.4-4.8-0.1l-7.7,7.7l-7.7-7.7
				c-1.3-1.3-3.4-1.2-4.8,0.1c-1.4,1.4-1.4,3.5-0.1,4.8l7.7,7.7l-7.6,7.6c-1.3,1.3-1.2,3.4,0.1,4.8c1.4,1.4,3.5,1.4,4.8,0.1l7.6-7.6
				l7.6,7.6c1.3,1.3,3.4,1.2,4.8-0.1c1.4-1.4,1.4-3.5,0.1-4.8L482.7,71.1z"/>
			<path fill="#80BA27" d="M484.2,52.2c0,3.6-2.9,6.4-6.4,6.4c-3.5,0-6.4-2.9-6.4-6.4c0-3.5,2.9-6.4,6.4-6.4
				C481.3,45.8,484.2,48.7,484.2,52.2"/>
		</g>
	</g>
	<path fill="#80BA27" d="M58.7,133.2c0,0-1.9,0.1-2.5-0.1c-0.5-0.2-1.9-1.1-1.9-1.1L8.2,103.2c0,0-5.3-2.7-6.6-4.1
		C-0.1,97.3,0,94.4,0,94.4V7.2c0,0,0-3,1.8-4.8c1.9-1.9,4.5-2,4.5-2l105,0.1c0,0,6.5,0.2,6.5,7.6c0,7.5,0,76,0,76s-0.1,1.2,0.1,1.7
		c0.1,0.4,1,0.9,1,0.9l40.4,26.9c0,0,5.8,3.9,2.7,13.1c-2.4,7.3-10.1,6.8-10.1,6.8L58.7,133.2z M99.9,22.6c0-2.5-2.1-4.6-4.6-4.6
		H23.6c-2.5,0-4.6,2.1-4.6,4.6V75c0,2.5,2.1,4.6,4.6,4.6h71.7c2.5,0,4.6-2.1,4.6-4.6V22.6z"/>
	<path fill="none" stroke="#80BA27" stroke-width="19" stroke-linecap="round" stroke-miterlimit="10" d="M243.1,74l23.8,25.1
		c1.4,1.5,3.9,1.4,5.2-0.2l48-61.2"/>
</g>
</svg>
