<?xml version="1.0" encoding="utf-8"?>
<!-- Generator: Adobe Illustrator 17.1.0, SVG Export Plug-In . SVG Version: 6.00 Build 0)  -->
<!DOCTYPE svg PUBLIC "-//W3C//DTD SVG 1.1//EN" "http://www.w3.org/Graphics/SVG/1.1/DTD/svg11.dtd">
<svg version="1.1" id="Layer_1" xmlns="http://www.w3.org/2000/svg" xmlns:xlink="http://www.w3.org/1999/xlink" x="0px" y="0px"
	 viewBox="0 0 135.8 135.8" enable-background="new 0 0 135.8 135.8" xml:space="preserve">
<g>
	<g>
		<path fill="#7AC143" stroke="none" stroke-width="3" stroke-miterlimit="10" d="M114.8,20.9c-12-12-28.6-19.4-46.9-19.4
			c-18.3,0-34.9,7.4-46.9,19.4c-12,12-19.4,28.6-19.4,46.9c0,18.3,7.4,34.9,19.4,46.9c12,12,28.6,19.4,46.9,19.4
			c18.3,0,34.9-7.4,46.9-19.4c12-12,19.4-28.6,19.4-46.9S126.8,32.9,114.8,20.9z M67.9,94c-7.2,0-13.8-2.9-18.5-7.7
			c-4.7-4.7-7.7-11.3-7.7-18.5c0-7.2,2.9-13.7,7.7-18.5c4.7-4.7,11.3-7.7,18.5-7.7c7.2,0,13.7,2.9,18.5,7.7
			c4.7,4.7,7.7,11.3,7.7,18.5c0,7.2-2.9,13.7-7.7,18.5C81.6,91.1,75.1,94,67.9,94z M25.7,25.7c10-10,23.5-16.4,38.5-17.4
			c1.1,0.1,3.7,0.6,3.7,3.8c0,0,0,0,0,0v19.3c0,0,0,0,0,0c0,2.6-1.7,3.5-2.9,3.7c-0.4,0-0.6,0.1-0.9,0.1c-0.1,0-0.4,0.1-0.4,0.1
			l-0.5,0c-7.4,0.9-13.5,4.3-18.5,9.3c-5.3,5.3-8.8,12.5-9.5,20.5c-0.3,1.2-1.2,2.6-3.6,2.6c-0.3,0-0.6,0-0.8,0.1H13
			c-0.2-0.1-0.5-0.1-0.8-0.1c-4.1,0-3.8-4.2-3.8-4.2l0,0.3C9.4,49.1,15.8,35.5,25.7,25.7z M110.1,110.1c-9.9,9.9-23.2,16.3-38,17.3
			l-0.4,0c0,0-3.8,0.3-3.8-3.9c0-0.1,0-0.1,0-0.2v-18.9c0-0.1,0-0.1,0-0.2c0-2.2,1.3-3.2,2.4-3.6c8.1-0.6,15.4-4.1,20.8-9.5
			c5.3-5.3,8.9-12.5,9.5-20.5c0.3-1.2,1.2-2.6,3.5-2.7h19.6c3.8,0.1,3.7,3.7,3.7,4.2C126.4,86.9,120,100.2,110.1,110.1z"/>
	</g>
	<g>
		<path fill="none" stroke="#7AC143" stroke-width="3" stroke-miterlimit="10" d="M72.8,72.3l7.7-7.7c1.3-1.3,1.2-3.4-0.1-4.8
			c-1.4-1.4-3.5-1.4-4.8-0.1l-7.7,7.7l-7.7-7.7c-1.3-1.3-3.4-1.2-4.8,0.1c-1.4,1.4-1.4,3.5-0.1,4.8l7.7,7.7l-7.6,7.6
			c-1.3,1.3-1.2,3.4,0.1,4.8c1.4,1.4,3.5,1.4,4.8,0.1l7.6-7.6l7.6,7.6c1.3,1.3,3.4,1.2,4.8-0.1c1.4-1.4,1.4-3.5,0.1-4.8L72.8,72.3z"
			/>
		<path fill="none" stroke="#7AC143" stroke-width="3" stroke-miterlimit="10" d="M74.3,53.5c0,3.5-2.9,6.4-6.4,6.4
			c-3.5,0-6.4-2.9-6.4-6.4c0-3.5,2.9-6.4,6.4-6.4C71.4,47.1,74.3,50,74.3,53.5"/>
	</g>
</g>
</svg>
