<?xml version="1.0" encoding="UTF-8" standalone="no"?>
<!-- Created with Inkscape (http://www.inkscape.org/) -->

<svg
   xmlns:dc="http://purl.org/dc/elements/1.1/"
   xmlns:cc="http://creativecommons.org/ns#"
   xmlns:rdf="http://www.w3.org/1999/02/22-rdf-syntax-ns#"
   xmlns:svg="http://www.w3.org/2000/svg"
   xmlns="http://www.w3.org/2000/svg"
   version="1.1"
   width="55"
   height="55"
   id="svg2"
   xml:space="preserve"><metadata
     id="metadata11"><rdf:RDF><cc:Work
         rdf:about=""><dc:format>image/svg+xml</dc:format><dc:type
           rdf:resource="http://purl.org/dc/dcmitype/StillImage" /><dc:title></dc:title></cc:Work></rdf:RDF></metadata><defs
     id="defs9" /><g
     transform="matrix(0.18046533,0,0,-0.18046533,-20.611012,28.072139)"
     id="g24-9-8" /><g
     transform="matrix(0.18046533,0,0,-0.18046533,-19.550745,14.61582)"
     id="g28-8-7" /><path
     d="m 27.472292,4.5331701 c -12.683305,0 -22.9646939,10.2813889 -22.9646939,22.9646959 0,12.683307 10.2813889,22.964695 22.9646939,22.964695 12.683308,0 22.964697,-10.281388 22.964697,-22.964695 0,-12.683307 -10.281389,-22.9646959 -22.964697,-22.9646959 z m 0,8.3205419 c 8.095185,0 14.644154,6.54897 14.644154,14.644154 0,8.095184 -6.548969,14.644154 -14.644154,14.644154 -8.095181,0 -14.644153,-6.54897 -14.644153,-14.644154 0,-8.095184 6.548972,-14.644153 14.644153,-14.644153 z"
     id="path3176"
     style="fill:none;stroke:#7ac143;stroke-width:2.23319697;stroke-miterlimit:4;stroke-opacity:1;stroke-dasharray:none" /><rect
     width="6.7303939"
     height="9.1235476"
     ry="1.4247824"
     x="24.132671"
     y="-13.582622"
     transform="matrix(0,1,-1,0,0,0)"
     id="rect3946-0-6"
     style="fill:#7ac143;fill-opacity:1;stroke:#7ac143;stroke-width:2.23319697;stroke-miterlimit:4;stroke-opacity:1;stroke-dasharray:none" /><rect
     width="6.7303939"
     height="9.1235476"
     ry="1.1873187"
     x="24.107094"
     y="41.400925"
     id="rect3946-8"
     style="fill:#7ac143;fill-opacity:1;stroke:#7ac143;stroke-width:2.23319697;stroke-miterlimit:4;stroke-opacity:1;stroke-dasharray:none" /><rect
     width="6.7303939"
     height="9.1235476"
     ry="1.1873187"
     x="24.107094"
     y="4.4755273"
     id="rect3946"
     style="fill:#7ac143;fill-opacity:1;stroke:#7ac143;stroke-width:2.23319697;stroke-miterlimit:4;stroke-opacity:1;stroke-dasharray:none" /><rect
     width="6.7303939"
     height="9.1235476"
     ry="1.3060504"
     x="24.132671"
     y="-50.540924"
     transform="matrix(0,1,-1,0,0,0)"
     id="rect3946-0"
     style="fill:#7ac143;fill-opacity:1;stroke:#7ac143;stroke-width:2.23319697;stroke-miterlimit:4;stroke-opacity:1;stroke-dasharray:none" /><g
     transform="matrix(0.4712713,0,0,0.4712713,14.599184,14.539568)"
     id="stock-xo_1_"
     style="fill:#7ac143;fill-opacity:1;display:block"><path
       d="m 33.233,35.1 10.102,10.1 c 0.752,0.75 1.217,1.783 1.217,2.932 0,2.287 -1.855,4.143 -4.146,4.143 -1.145,0 -2.178,-0.463 -2.932,-1.211 l -10.102,-10.103 -10.1,10.1 c -0.75,0.75 -1.787,1.211 -2.934,1.211 -2.284,0 -4.143,-1.854 -4.143,-4.141 0,-1.146 0.465,-2.184 1.212,-2.934 L 21.511,35.095 11.409,24.995 c -0.747,-0.748 -1.212,-1.785 -1.212,-2.93 0,-2.289 1.854,-4.146 4.146,-4.146 1.143,0 2.18,0.465 2.93,1.214 L 27.372,29.235 37.474,19.132 c 0.754,-0.749 1.787,-1.214 2.934,-1.214 2.289,0 4.146,1.856 4.146,4.145 0,1.146 -0.467,2.18 -1.217,2.932 L 33.233,35.1 z"
       id="path3111"
       style="fill:#7ac143;fill-opacity:1" /><circle
       cx="27.371"
       cy="10.849"
       r="8.1219997"
       id="circle3113"
       style="fill:#7ac143;fill-opacity:1" /></g></svg>