<?xml version="1.0" ?><!-- Created with Inkscape (http://www.inkscape.org/) --><!DOCTYPE svg  PUBLIC '-//W3C//DTD SVG 1.1//EN'  'http://www.w3.org/Graphics/SVG/1.1/DTD/svg11.dtd' [
	<!ENTITY stroke_color "#666666">
	<!ENTITY fill_color "#ffffff">
]><svg height="55" id="svg2" version="1.1" width="55" xml:space="preserve" xmlns="http://www.w3.org/2000/svg" xmlns:cc="http://creativecommons.org/ns#" xmlns:dc="http://purl.org/dc/elements/1.1/" xmlns:rdf="http://www.w3.org/1999/02/22-rdf-syntax-ns#" xmlns:svg="http://www.w3.org/2000/svg"><metadata id="metadata11"><rdf:RDF><cc:Work rdf:about=""><dc:format>image/svg+xml</dc:format><dc:type rdf:resource="http://purl.org/dc/dcmitype/StillImage"/><dc:title/></cc:Work></rdf:RDF></metadata><defs id="defs9"/><g id="g24-9-8" transform="matrix(0.18046533,0,0,-0.18046533,-20.611012,28.072139)"/><g id="g28-8-7" transform="matrix(0.18046533,0,0,-0.18046533,-19.550745,14.61582)"/><g id="g3897" style="stroke-width:2.23319697;stroke-miterlimit:4;stroke-dasharray:none" transform="matrix(1.1194713,0,0,1.1194713,37.413961,-6.67708)"><path d="m -8.880682,10.013879 c -11.329728,0 -20.513875,9.184147 -20.513875,20.513876 0,11.32973 9.184147,20.513876 20.513875,20.513876 11.32973,0 20.513877,-9.184146 20.513877,-20.513876 0,-11.329729 -9.184147,-20.513876 -20.513877,-20.513876 z m 0,7.432564 c 7.231257,0 13.081312,5.850056 13.081312,13.081312 0,7.231257 -5.850055,13.081313 -13.081312,13.081313 -7.231254,0 -13.081312,-5.850056 -13.081312,-13.081313 0,-7.231256 5.850058,-13.081311 13.081312,-13.081311 z" id="path3176" style="fill:none;stroke:&stroke_color;;stroke-width:2.23319697;stroke-miterlimit:4;stroke-opacity:1;stroke-dasharray:none"/><rect height="8.1498718" id="rect3946-0-6" ry="1.272728" style="fill:&stroke_color;;fill-opacity:1;stroke:&stroke_color;;stroke-width:2.23319697;stroke-miterlimit:4;stroke-opacity:1;stroke-dasharray:none" transform="matrix(0,1,-1,0,0,0)" width="6.0121183" x="27.521698" y="21.288031"/><rect height="8.1498718" id="rect3946-8" ry="1.0606066" style="fill:&stroke_color;;fill-opacity:1;stroke:&stroke_color;;stroke-width:2.23319697;stroke-miterlimit:4;stroke-opacity:1;stroke-dasharray:none" width="6.0121183" x="-11.886743" y="42.947063"/><rect height="8.1498718" id="rect3946" ry="1.0606066" style="fill:&stroke_color;;fill-opacity:1;stroke:&stroke_color;;stroke-width:2.23319697;stroke-miterlimit:4;stroke-opacity:1;stroke-dasharray:none" width="6.0121183" x="-11.886743" y="9.962388"/><rect height="8.1498718" id="rect3946-0" ry="1.1666672" style="fill:&stroke_color;;fill-opacity:1;stroke:&stroke_color;;stroke-width:2.23319697;stroke-miterlimit:4;stroke-opacity:1;stroke-dasharray:none" transform="matrix(0,1,-1,0,0,0)" width="6.0121183" x="27.521698" y="-11.726039"/></g><g id="stock-xo_1_" style="display:block" transform="matrix(0.4712713,0,0,0.4712713,14.599184,14.539568)"><path d="m 33.233,35.1 10.102,10.1 c 0.752,0.75 1.217,1.783 1.217,2.932 0,2.287 -1.855,4.143 -4.146,4.143 -1.145,0 -2.178,-0.463 -2.932,-1.211 l -10.102,-10.103 -10.1,10.1 c -0.75,0.75 -1.787,1.211 -2.934,1.211 -2.284,0 -4.143,-1.854 -4.143,-4.141 0,-1.146 0.465,-2.184 1.212,-2.934 L 21.511,35.095 11.409,24.995 c -0.747,-0.748 -1.212,-1.785 -1.212,-2.93 0,-2.289 1.854,-4.146 4.146,-4.146 1.143,0 2.18,0.465 2.93,1.214 L 27.372,29.235 37.474,19.132 c 0.754,-0.749 1.787,-1.214 2.934,-1.214 2.289,0 4.146,1.856 4.146,4.145 0,1.146 -0.467,2.18 -1.217,2.932 L 33.233,35.1 z" id="path3111" style="fill:&fill_color;;stroke:&stroke_color;;stroke-width:3.5"/><circle cx="27.371" cy="10.849" id="circle3113" r="8.1219997" style="fill:&fill_color;;stroke:&stroke_color;;stroke-width:3.5"/></g></svg>
